<?xml version="1.0" encoding="UTF-8" standalone="no"?>
<svg
   width="73.029999"
   height="80"
   viewBox="0 0 73.029999 80"
   version="1.1"
   id="svg6"
   sodipodi:docname="logo (copy).svg"
   inkscape:version="1.2.2 (1:1.2.2+202212051551+b0a8486541)"
   xmlns:inkscape="http://www.inkscape.org/namespaces/inkscape"
   xmlns:sodipodi="http://sodipodi.sourceforge.net/DTD/sodipodi-0.dtd"
   xmlns="http://www.w3.org/2000/svg"
   xmlns:svg="http://www.w3.org/2000/svg">
  <defs
     id="defs10" />
  <sodipodi:namedview
     id="namedview8"
     pagecolor="#505050"
     bordercolor="#eeeeee"
     borderopacity="1"
     inkscape:showpageshadow="0"
     inkscape:pageopacity="0"
     inkscape:pagecheckerboard="0"
     inkscape:deskcolor="#505050"
     showgrid="false"
     inkscape:zoom="2.95"
     inkscape:cx="145.9322"
     inkscape:cy="40.169492"
     inkscape:window-width="1920"
     inkscape:window-height="1011"
     inkscape:window-x="0"
     inkscape:window-y="0"
     inkscape:window-maximized="1"
     inkscape:current-layer="svg6" />
  <title
     id="title2">Artboard</title>
  <path
     d="M 48.916,35.276 42.526,5.536 22.496,9.751 28.881,39.491 0,45.563 5.1,69.32 55.89,80 67.504,54.187 73.03,2.12 52.66,0 Z M 32.712,51.552 c -1.466,-0.482 -2.118,-2.237 -1.562,-4.36 0.414,-1.575 2.362,-1.81 3.337,-1.828 0.37,-0.006 0.735,0.068 1.07,0.218 0.69,0.31 1.857,0.968 2.094,1.973 0.343,1.45 0.013,2.667 -1.034,3.616 -1.05,0.953 -2.434,0.866 -3.904,0.382 z m 13.882,1.788 c -1.324,-0.642 -1.314,-2.277 -1.17,-3.274 0.078,-0.543 0.298,-1.055 0.642,-1.487 0.473,-0.594 1.263,-1.367 2.175,-1.39 1.485,-0.04 2.762,0.62 3.483,1.812 0.724,1.188 0.362,2.498 -0.4,3.81 -0.767,1.307 -2.764,1.48 -4.73,0.528 z"
     fill="#00ccbc"
     fill-rule="evenodd"
     id="path4"
     sodipodi:nodetypes="cccccccccccccccccccccsccccc" />
</svg>
